<svg height="480pt" viewBox="0 0 480 480" width="480pt" xmlns="http://www.w3.org/2000/svg"><path d="m184 152h16v56h-16zm0 0" fill="#b3b3b3"/><path d="m424 416v56c0 4.414062 3.585938 8 8 8h24c4.414062 0 8-3.585938 8-8v-56zm0 0" fill="#603813"/><path d="m448 472v-56h-24v56c0 4.414062 3.585938 8 8 8h8c4.414062 0 8-3.585938 8-8zm0 0" fill="#754c24"/><path d="m16 416v56c0 4.414062 3.585938 8 8 8h24c4.414062 0 8-3.585938 8-8v-56zm0 0" fill="#603813"/><path d="m40 472v-56h-24v56c0 4.414062 3.585938 8 8 8h8c4.414062 0 8-3.585938 8-8zm0 0" fill="#754c24"/><path d="m168 88h48v43.152344c0 8.023437-4.007812 15.519531-10.6875 19.96875-8.066406 5.375-18.570312 5.375-26.625 0-6.679688-4.449219-10.6875-11.9375-10.6875-19.96875zm0 0" fill="#5f9ab3"/><path d="m178.6875 151.128906c1.671875 1.117188 3.472656 1.941406 5.3125 2.597656 1.839844-.65625 3.640625-1.480468 5.3125-2.597656 6.679688-4.457031 10.6875-11.945312 10.6875-19.976562v-43.152344h-32v43.152344c0 8.03125 4.007812 15.519531 10.6875 19.976562zm0 0" fill="#7fcdee"/><path d="m56 208h80v-80.488281c0-10.152344-2.761719-20.113281-7.984375-28.808594l-9.175781-15.296875c-4.472656-7.453125-6.839844-16-6.839844-24.695312v-50.710938c0-4.414062-3.585938-8-8-8h-16c-4.414062 0-8 3.585938-8 8v50.703125c0 8.695313-2.367188 17.234375-6.839844 24.695313l-9.175781 15.296874c-5.222656 8.703126-7.984375 18.664063-7.984375 28.816407zm0 0" fill="#754c24"/><path d="m112.015625 98.695312-9.175781-15.296874c-4.480469-7.453126-6.839844-16-6.839844-24.695313v-50.703125c0-4.414062-3.585938-8-8-8s-8 3.585938-8 8v50.703125c0 8.695313-2.367188 17.234375-6.839844 24.695313l-9.175781 15.296874c-5.222656 8.703126-7.984375 18.664063-7.984375 28.816407v80.488281h64v-80.488281c0-10.152344-2.761719-20.113281-7.984375-28.816407zm0 0" fill="#8c6239"/><path d="m359.992188 439.464844.015624.015625c22.089844 22.039062 57.894532 22.039062 79.984376 0l40.007812-39.921875v-191.558594h-480v191.558594l40.007812 39.914062c22.089844 22.039063 57.894532 22.039063 79.984376 0l.015624-.015625c22.089844-22.042969 57.894532-22.042969 79.984376 0l.015624.015625c22.089844 22.039063 57.894532 22.039063 79.984376 0l.015624-.015625c22.089844-22.03125 57.894532-22.03125 79.984376.007813zm0 0" fill="#911d22"/><path d="m40.007812 439.472656c6.929688 6.910156 15.207032 11.65625 23.992188 14.230469 8.785156-2.574219 17.0625-7.3125 23.992188-14.230469l.007812-.007812c15.160156-15.121094 36.777344-19.863282 55.992188-14.234375 19.214843-5.628907 40.832031-.894531 55.992187 14.234375l.007813.007812c6.929687 6.910156 15.207031 11.65625 23.992187 14.230469 8.785156-2.574219 17.0625-7.3125 23.992187-14.230469l.007813-.007812c15.160156-15.121094 36.777344-19.863282 55.992187-14.234375 19.214844-5.628907 40.832032-.894531 55.992188 14.234375l.007812.007812c6.925782 6.910156 15.207032 11.65625 23.992188 14.230469 8.785156-2.574219 17.0625-7.3125 23.992188-14.230469l40.039062-39.914062v-191.558594h-448v191.558594zm0 0" fill="#c1272d"/><path d="m384 8v40h-48v-40" fill="#1a1a1a"/><path d="m336 8h24v40h-24zm0 0" fill="#333"/><path d="m248 176h224v32h-224zm0 0" fill="#1a1a1a"/><path d="m248 176h200v32h-200zm0 0" fill="#333"/><path d="m264 176v-40c0-53.015625 42.984375-96 96-96s96 42.984375 96 96v40zm0 0" fill="#b3b3b3"/><path d="m348 40.832031c-47.34375 5.910157-84 46.222657-84 95.167969v40h168v-40c0-48.945312-36.65625-89.257812-84-95.167969zm0 0" fill="#ccc"/><path d="m80 24h32v16h-32zm0 0" fill="#42210b"/><g fill="#6d161a"><path d="m168 423.558594v-215.558594h-16v215.558594c5.3125-.75 10.6875-.75 16 0zm0 0"/><path d="m328 423.558594v-215.558594h-16v215.558594c5.3125-.75 10.6875-.75 16 0zm0 0"/><path d="m88 455.367188v-247.367188h-16v247.367188c5.3125.753906 10.6875.753906 16 0zm0 0"/><path d="m408 208h-16v247.367188c5.3125.753906 10.6875.753906 16 0zm0 0"/><path d="m248 455.367188v-247.367188h-16v247.367188c5.3125.753906 10.6875.753906 16 0zm0 0"/></g><path d="m416 120h-16c0-17.648438-14.351562-32-32-32v-16c26.472656 0 48 21.527344 48 48zm0 0" fill="#808080"/></svg>