<?xml version="1.0" encoding="iso-8859-1"?>
<!-- Generator: Adobe Illustrator 19.0.0, SVG Export Plug-In . SVG Version: 6.00 Build 0)  -->
<svg xmlns="http://www.w3.org/2000/svg" xmlns:xlink="http://www.w3.org/1999/xlink" version="1.1" id="Layer_1" x="0px" y="0px" viewBox="0 0 512 512" style="enable-background:new 0 0 512 512;" xml:space="preserve" width="512" height="512">
<g>
	<path style="fill:#FFDA2D;" d="M316,106c0,32.999-27.001,60-60,60s-60-27.001-60-60H316z"/>
	<rect x="91" y="121" style="fill:#E0F4FF;" width="30" height="60"/>
	<rect x="391" y="121" style="fill:#BBDCFF;" width="30" height="60"/>
	<path style="fill:#465A61;" d="M31,286V76H0v390h31v-90h120v90h30V286H31z"/>
	<path style="fill:#3B4A51;" d="M481,76v210H331v180h30v-90h120v90h31V76H481z"/>
	<path style="fill:#596C76;" d="M61,256c0-8.284,6.716-15,15-15s15,6.716,15,15v210H61V256z"/>
	<path style="fill:#465A61;" d="M436,241c8.284,0,15,6.716,15,15v210h-30V256C421,247.716,427.716,241,436,241z"/>
	<rect x="61" y="166" style="fill:#FFCEBF;" width="390" height="90"/>
	<rect x="256" y="166" style="fill:#FFB99C;" width="195" height="90"/>
	<path style="fill:#FF637B;" d="M412,166c-2.996,3.001-166.391,166.709-156,156.299C253.005,319.298,89.609,155.589,100,166H412z"/>
	<path style="fill:#E63950;" d="M412,166c-2.996,3.001-166.391,166.709-156,156.299V166H412z"/>
	<path style="fill:#FDBF00;" d="M316,106c0,32.999-27.001,60-60,60v-60H316z"/>
	<path style="fill:#E0F4FF;" d="M106,136c-24.814,0-45-20.186-45-45V46h90v45C151,115.814,130.814,136,106,136z"/>
	<path style="fill:#BBDCFF;" d="M406,136c-24.814,0-45-20.186-45-45V46h90v45C451,115.814,430.814,136,406,136z"/>
</g>















</svg>
