<?xml version="1.0" standalone="no"?>
<!DOCTYPE svg PUBLIC "-//W3C//DTD SVG 20010904//EN"
 "http://www.w3.org/TR/2001/REC-SVG-20010904/DTD/svg10.dtd">
<svg version="1.0" xmlns="http://www.w3.org/2000/svg"
 width="1790.000000pt" height="971.000000pt" viewBox="0 0 1790.000000 971.000000"
 preserveAspectRatio="xMidYMid meet">
<metadata>
Created by potrace 1.15, written by Peter Selinger 2001-2017
</metadata>
<g transform="translate(0.000000,971.000000) scale(0.100000,-0.100000)"
fill="#000000" stroke="none">
<path d="M3491 9695 c-56 -17 -138 -74 -174 -120 -88 -111 -103 -212 -114
-780 -8 -444 16 -848 59 -962 67 -181 276 -285 464 -228 27 8 306 156 619 329
l570 313 30 -33 c54 -59 65 -61 365 -69 322 -8 343 -5 408 61 l44 43 26 -18
c65 -45 1103 -607 1152 -624 121 -42 276 -7 373 82 130 120 152 270 151 1006
-1 610 -15 740 -91 853 -43 63 -128 127 -197 147 -70 21 -194 19 -253 -3 -27
-10 -298 -156 -605 -325 l-556 -306 -41 39 c-60 57 -98 62 -416 58 -299 -3
-303 -4 -362 -71 -29 -33 -30 -34 -54 -17 -48 34 -1095 604 -1142 622 -57 22
-190 23 -256 3z"/>
<path d="M1435 8824 c-770 -67 -1408 -123 -1417 -123 -12 -1 -18 -9 -18 -23 1
-13 378 -1969 838 -4348 l838 -4325 3657 -3 3657 -2 5 22 c24 108 1676 8670
1673 8673 -5 6 -2889 256 -2907 253 -7 -2 268 -187 612 -411 l625 -408 -243
-322 c-133 -177 -405 -537 -603 -801 l-361 -479 307 -314 c169 -173 307 -320
307 -327 0 -14 -3064 -4406 -3074 -4406 -3 1 -699 993 -1545 2206 l-1539 2206
314 314 c270 270 312 316 303 332 -6 9 -277 370 -603 802 -466 619 -588 787
-578 796 10 10 913 602 1167 766 l75 48 -45 -1 c-25 -1 -675 -57 -1445 -125z"/>
</g>
</svg>
